#!OML:ASF E:\motion texture\Top Level 1\Subject 1\Session 1\male.ASF
:FULLY-SPECIFIED
:DEGREES
843
root -37.8403 18.0555 2.74841 750.011 -76.974 -744.503
lowerback -1.85591 -0.115733 7.37065
upperback -4.14341 -0.191674 3.62371
thorax -3.26334 -0.323033 -0.36861
lowerneck -9.55083 -9.13317 -11.8406
upperneck 0.0800946 -11.2106 9.3393
head 2.7452 -5.37869 4.03458
rclavicle -1.8487e-014 2.38542e-014
rhumerus 38.2893 -13.5463 -88.4173
rradius 58.8638
rwrist -38.2726
rhand 6.79078 -21.9445
rfingers 7.12502
rthumb 32.0765 -49.1351
lclavicle -1.8487e-014 2.38542e-014
lhumerus -7.60868 -21.7211 92.7708
lradius 50.4915
lwrist -20.7763
lhand -15.8301 17.2693
lfingers 7.12502
lthumb 10.364 46.9939
rfemur -18.7648 0.689492 27.1789
rtibia 19.1367
rfoot -3.468 -16.6741
rtoes 21.1187
lfemur -14.8951 -4.96897 -10.6406
ltibia 51.0283
lfoot 1.99424 -7.96836
ltoes -16.3653
844
root -38.0078 18.0707 2.73203 751.098 -76.9644 -745.588
lowerback -1.87155 -0.0718971 7.58474
upperback -4.20271 -0.13362 3.62157
thorax -3.31564 -0.304858 -0.488776
lowerneck -9.37704 -9.12903 -11.7716
upperneck -0.340592 -11.2207 9.45603
head 2.5966 -5.38607 4.07503
rclavicle -2.24627e-014 -1.43125e-014
rhumerus 39.4973 -13.3028 -88.3304
rradius 60.0868
rwrist -38.6099
rhand 5.81587 -21.7104
rfingers 7.12502
rthumb 31.1479 -49.0836
lclavicle -2.24627e-014 -1.43125e-014
lhumerus -7.51013 -22.1117 92.7339
lradius 51.5433
lwrist -20.3999
lhand -15.8124 17.1352
lfingers 7.12502
lthumb 10.3812 46.8589
rfemur -18.0526 0.768457 27.6714
rtibia 18.8902
rfoot -3.80955 -16.5333
rtoes 21.074
lfemur -15.7492 -4.79787 -10.3305
ltibia 51.5812
lfoot 1.81333 -7.49431
ltoes -16.5674
845
root -38.1747 18.0851 2.71611 752.174 -76.9711 -746.66
lowerback -1.88728 -0.0280773 7.78592
upperback -4.25774 -0.0757497 3.61638
thorax -3.36301 -0.286306 -0.604981
lowerneck -9.1941 -9.11812 -11.6965
upperneck -0.785027 -11.2216 9.57161
head 2.4384 -5.38985 4.11611
rclavicle 4.66647e-014 -2.62396e-014
rhumerus 40.6405 -13.0707 -88.2163
rradius 61.2495
rwrist -38.8861
rhand 4.86071 -21.5267
rfingers 7.12502
rthumb 30.2371 -49.0708
lclavicle 4.66647e-014 -2.62396e-014
lhumerus -7.43754 -22.4565 92.6896
lradius 52.5758
lwrist -20.0117
lhand -15.7974 17.0209
lfingers 7.12502
lthumb 10.3956 46.7439
rfemur -17.3408 0.846403 28.1483
rtibia 18.6399
rfoot -4.15521 -16.4
rtoes 20.9756
lfemur -16.5911 -4.6215 -10.049
ltibia 52.0363
lfoot 1.56578 -6.99979
ltoes -16.7386
846
root -38.3411 18.0985 2.70078 753.247 -76.9926 -747.725
lowerback -1.90372 0.015074 7.97675
upperback -4.30803 -0.0190543 3.60837
thorax -3.4047 -0.26788 -0.718415
lowerneck -9.00198 -9.0997 -11.6175
upperneck -1.25428 -11.2121 9.68901
head 2.27051 -5.38944 4.15917
rclavicle 1.3418e-014 3.97569e-015
rhumerus 41.719 -12.8483 -88.0745
rradius 62.3525
rwrist -39.1011
rhand 3.93185 -21.3744
rfingers 7.12502
rthumb 29.3506 -49.0773
lclavicle 1.3418e-014 3.97569e-015
lhumerus -7.38876 -22.7579 92.6378
lradius 53.5896
lwrist -19.6126
lhand -15.7876 16.9255
lfingers 7.12502
lthumb 10.405 46.6481
rfemur -16.6306 0.91756 28.6104
rtibia 18.3862
rfoot -4.49675 -16.2565
rtoes 20.8426
lfemur -17.4186 -4.44207 -9.79531
ltibia 52.3902
lfoot 1.25615 -6.48634
ltoes -16.8801
847
root -38.507 18.111 2.68601 754.324 -77.0298 -748.793
lowerback -1.92201 0.0580657 8.15683
upperback -4.35266 0.0369369 3.59839
thorax -3.43906 -0.249209 -0.828025
lowerneck -8.80355 -9.07379 -11.5339
upperneck -1.74656 -11.192 9.80595
head 2.09372 -5.38474 4.20328
rclavicle -8.29926e-015 -3.49861e-014
rhumerus 42.7324 -12.6342 -87.9029
rradius 63.3968
rwrist -39.2546
rhand 3.03618 -21.2314
rfingers 7.12502
rthumb 28.4951 -49.0809
lclavicle -8.29926e-015 -3.49861e-014
lhumerus -7.35933 -23.0205 92.5782
lradius 54.5838
lwrist -19.2011
lhand -15.7842 16.8503
lfingers 7.12502
lthumb 10.4083 46.5727
rfemur -15.9233 0.98266 29.0581
rtibia 18.1303
rfoot -4.82956 -16.101
rtoes 20.6807
lfemur -18.2274 -4.25943 -9.56787
ltibia 52.6374
lfoot 0.890524 -5.95468
ltoes -16.9818
848
root -38.6724 18.1223 2.67189 755.419 -77.0848 -749.876
lowerback -1.94279 0.101696 8.32726
upperback -4.39272 0.0932259 3.5868
thorax -3.46684 -0.229854 -0.934027
lowerneck -8.59547 -9.04008 -11.4472
upperneck -2.26152 -11.161 9.92267
head 1.9077 -5.37575 4.24886
rclavicle -7.55382e-015 1.43125e-014
rhumerus 43.6769 -12.4268 -87.699
rradius 64.3853
rwrist -39.3473
rhand 2.16091 -21.1241
rfingers 7.12502
rthumb 27.6585 -49.1107
lclavicle -7.55382e-015 1.43125e-014
lhumerus -7.35173 -23.245 92.5128
lradius 55.5599
lwrist -18.78
lhand -15.7856 16.7948
lfingers 7.12502
lthumb 10.4069 46.5173
rfemur -15.2209 1.04139 29.4916
rtibia 17.877
rfoot -5.15692 -15.9395
rtoes 20.483
lfemur -19.0129 -4.07302 -9.36599
ltibia 52.7726
lfoot 0.475528 -5.40442
ltoes -17.0452
849
root -38.8372 18.1326 2.65839 756.535 -77.1565 -750.975
lowerback -1.96802 0.145413 8.48626
upperback -4.42727 0.148769 3.57415
thorax -3.48598 -0.210135 -1.03487
lowerneck -8.38025 -8.99884 -11.3564
upperneck -2.80055 -11.1193 10.0379
head 1.71231 -5.36253 4.29531
rclavicle -2.17172e-014 -1.11319e-014
rhumerus 44.5549 -12.2236 -87.4606
rradius 65.3211
rwrist -39.381
rhand 1.30432 -21.0526
rfingers 7.12502
rthumb 26.8391 -49.1678
lclavicle -2.17172e-014 -1.11319e-014
lhumerus -7.35914 -23.4344 92.4402
lradius 56.5178
lwrist -18.3495
lhand -15.7901 16.7602
lfingers 7.12502
lthumb 10.4027 46.4829
rfemur -14.5273 1.0962 29.9087
rtibia 17.629
rfoot -5.47719 -15.7787
rtoes 20.2511
lfemur -19.7777 -3.88473 -9.18904
ltibia 52.7965
lfoot 0.0172097 -4.83838
ltoes -17.0662
